<?xml version="1.0" encoding="UTF-8" standalone="no"?>
<svg id="svg2327" xmlns:rdf="http://www.w3.org/1999/02/22-rdf-syntax-ns#" xmlns="http://www.w3.org/2000/svg" viewBox="0 0 48 48" version="1.1" xmlns:cc="http://creativecommons.org/ns#" xmlns:xlink="http://www.w3.org/1999/xlink" xmlns:dc="http://purl.org/dc/elements/1.1/">
 <defs id="defs3">
  <linearGradient id="linearGradient2752">
   <stop id="stop2754" stop-color="#9d9d9d" offset="0"/>
   <stop id="stop2756" stop-color="#b9b9b9" offset="1"/>
  </linearGradient>
  <linearGradient id="linearGradient2711">
   <stop id="stop2713" stop-color="#909090" offset="0"/>
   <stop id="stop2715" stop-color="#bebebe" stop-opacity="0.0000000" offset="1"/>
  </linearGradient>
  <linearGradient id="linearGradient2454">
   <stop id="stop2456" stop-color="#000" offset="0"/>
   <stop id="stop2458" stop-color="#000" stop-opacity="0" offset="1"/>
  </linearGradient>
  <linearGradient id="linearGradient2253">
   <stop id="stop2255" stop-color="#8f8f8f" offset="0"/>
   <stop id="stop2257" stop-color="#494949" offset="1"/>
  </linearGradient>
  <linearGradient id="linearGradient2245">
   <stop id="stop2247" stop-color="#dde1d9" offset="0"/>
   <stop id="stop2249" stop-color="#cacdc6" offset="1"/>
  </linearGradient>
  <linearGradient id="linearGradient2251" y2="33.34" xlink:href="#linearGradient2245" gradientUnits="userSpaceOnUse" x2="34.784" gradientTransform="matrix(1.129863,0.000000,0.000000,0.885063,-1.625000,-1.304372)" y1="7.2294" x1="8.6116"/>
  <linearGradient id="linearGradient2421" y2="55.201" gradientUnits="userSpaceOnUse" x2="34.975" gradientTransform="matrix(1.108069,0.000000,0.000000,0.902471,1.000000,1.000000)" y1="13.005" x1="17.698">
   <stop id="stop2417" stop-color="#FFF" offset="0"/>
   <stop id="stop2419" stop-color="#FFF" stop-opacity="0" offset="1"/>
  </linearGradient>
  <radialGradient id="radialGradient2460" xlink:href="#linearGradient2454" gradientUnits="userSpaceOnUse" cy="67.502" cx="12.576" gradientTransform="scale(1.925808,0.519262)" r="8.7663"/>
  <linearGradient id="linearGradient2673" y2="26.729" gradientUnits="userSpaceOnUse" y1="1.6538" gradientTransform="matrix(1.238977,0.000000,0.000000,0.895955,0.590553,-1.331524)" x2="17.199" x1="11.492">
   <stop id="stop2669" stop-color="#FFF" offset="0"/>
   <stop id="stop2671" stop-color="#fcfcff" stop-opacity="0.0000000" offset="1"/>
  </linearGradient>
  <linearGradient id="linearGradient2681" y2="8.8666" gradientUnits="userSpaceOnUse" y1="32.622" gradientTransform="matrix(1.174139,0.000000,0.000000,0.945431,0.721825,-1.331524)" x2="16.316" x1="19.15">
   <stop id="stop2677" stop-color="#5b5b97" offset="0"/>
   <stop id="stop2679" stop-color="#1b1b43" offset="1"/>
  </linearGradient>
  <linearGradient id="linearGradient2689" y2="162.45" gradientUnits="userSpaceOnUse" y1="171.29" gradientTransform="matrix(5.705159,0.000000,0.000000,0.175280,1.000000,-0.679373)" x2="3.707" x1="3.707">
   <stop id="stop2685" stop-color="#000" offset="0"/>
   <stop id="stop2687" stop-color="#000" stop-opacity="0" offset="1"/>
  </linearGradient>
  <linearGradient id="linearGradient2707" y2="64.893" gradientUnits="userSpaceOnUse" y1="53.535" gradientTransform="scale(1.816345,0.550556)" x2="12.128" x1="12.207">
   <stop id="stop2703" stop-color="#585956" offset="0"/>
   <stop id="stop2705" stop-color="#bbbeb8" offset="1"/>
  </linearGradient>
  <linearGradient id="linearGradient2717" y2="3.8451" xlink:href="#linearGradient2711" gradientUnits="userSpaceOnUse" y1="3.9384" x2="35.521" x1="34.301"/>
  <linearGradient id="linearGradient2741" y2="74.098" gradientUnits="userSpaceOnUse" y1="101.28" gradientTransform="matrix(2.143634,0.000000,0.000000,0.466498,1.000000,-0.508826)" x2="8.6485" x1="13.629">
   <stop id="stop2637" stop-color="#f9fff5" offset="0"/>
   <stop id="stop2639" stop-color="#f9fff5" stop-opacity="0" offset="1"/>
  </linearGradient>
  <linearGradient id="linearGradient2758" y2="100.2" xlink:href="#linearGradient2752" gradientUnits="userSpaceOnUse" y1="88.509" gradientTransform="scale(2.309851,0.432928)" x2="8.1134" x1="8.1134"/>
  <linearGradient id="linearGradient2979" y2="31.246" xlink:href="#linearGradient2253" gradientUnits="userSpaceOnUse" y1="5.3818" gradientTransform="scale(1.104397,0.905471)" x2="32.537" x1="10.391"/>
  <linearGradient id="linearGradient2981" y2="52.536" xlink:href="#linearGradient2245" gradientUnits="userSpaceOnUse" y1="48.643" gradientTransform="scale(1.129863,0.885063)" x2="18.177" x1="18.317"/>
  <linearGradient id="linearGradient2991" y2="44.879" gradientUnits="userSpaceOnUse" y1="49.953" gradientTransform="scale(1.492875,0.669848)" x2="-23.886" x1="-23.886">
   <stop id="stop2987" stop-color="#d8dfd6" offset="0"/>
   <stop id="stop2989" stop-color="#d8dfd6" stop-opacity="0" offset="1"/>
  </linearGradient>
  <linearGradient id="linearGradient3982" y2="15.815" gradientUnits="userSpaceOnUse" x2="20.917" gradientTransform="matrix(0.52418134,0,0,0.51217408,23.919646,19.999045)" y1="33.955" x1="21.994">
   <stop id="stop3959" stop-color="#fffeff" stop-opacity="0.33333334" offset="0"/>
   <stop id="stop3961" stop-color="#fffeff" stop-opacity="0.21568628" offset="1"/>
  </linearGradient>
  <linearGradient id="linearGradient3978" y2="5.541" gradientUnits="userSpaceOnUse" x2="19.071" y1="66.288" x1="36.918">
   <stop id="stop2538" stop-color="#a40000" offset="0"/>
   <stop id="stop2540" stop-color="#ff1717" offset="1"/>
  </linearGradient>
  <linearGradient id="linearGradient3980" y2="-8.5627" gradientUnits="userSpaceOnUse" x2="20.065" y1="53.836" x1="43.936">
   <stop id="stop2481" stop-color="#ffe69b" offset="0"/>
   <stop id="stop2483" stop-color="#FFF" offset="1"/>
  </linearGradient>
  <radialGradient id="radialGradient2880" gradientUnits="userSpaceOnUse" cx="23.857" cy="40" r="17.143" gradientTransform="matrix(1,0,0,0.5,0,20)">
   <stop id="stop4128" stop-color="#000" offset="0"/>
   <stop id="stop4130" stop-color="#000" stop-opacity="0" offset="1"/>
  </radialGradient>
 </defs>
 <metadata id="metadata4">
  <rdf:RDF>
   <cc:Work rdf:about="">
    <dc:format>image/svg+xml</dc:format>
    <dc:type rdf:resource="http://purl.org/dc/dcmitype/StillImage"/>
    <dc:title/>
    <dc:date>2005-03-08</dc:date>
    <dc:creator>
     <cc:Agent>
      <dc:title>Jakub Steiner</dc:title>
     </cc:Agent>
    </dc:creator>
    <dc:subject>
     <rdf:Bag>
      <rdf:li>workstation</rdf:li>
      <rdf:li>computer</rdf:li>
      <rdf:li>node</rdf:li>
      <rdf:li>client</rdf:li>
     </rdf:Bag>
    </dc:subject>
    <cc:license rdf:resource="http://creativecommons.org/licenses/publicdomain/"/>
    <dc:source>http://jimmac.musichall.cz/</dc:source>
   </cc:Work>
   <cc:License rdf:about="http://creativecommons.org/licenses/publicdomain/">
    <cc:permits rdf:resource="http://creativecommons.org/ns#Reproduction"/>
    <cc:permits rdf:resource="http://creativecommons.org/ns#Distribution"/>
    <cc:permits rdf:resource="http://creativecommons.org/ns#DerivativeWorks"/>
   </cc:License>
  </rdf:RDF>
 </metadata>
 <g id="layer1">
  <path id="path2452" style="marker-end:none;color:#000000;marker-start:none;marker-mid:none;" d="M41.101,35.051a16.882,4.552,0,1,1,-33.765,0,16.882,4.552,0,1,1,33.765,0z" fill-rule="evenodd" transform="matrix(1.000000,0.000000,0.000000,1.368932,-1.978553,-13.61713)" fill="url(#radialGradient2460)"/>
  <path id="path2407" stroke-linejoin="miter" style="marker-end:none;color:#000000;marker-start:none;marker-mid:none;" d="M-26.264,29.716a9.3944,3.9396,0,1,1,-18.789,0,9.3944,3.9396,0,1,1,18.789,0z" fill-rule="evenodd" transform="translate(57.53339,3.203427)" stroke-dashoffset="0.0000000" stroke="#4b4d4a" stroke-linecap="butt" stroke-miterlimit="4.0000000" stroke-width="1.0000000" fill="#adb0aa"/>
  <path id="path1825" stroke-linejoin="miter" style="marker-end:none;color:#000000;marker-start:none;marker-mid:none;" d="M-26.264,29.716a9.3944,3.9396,0,1,1,-18.789,0,9.3944,3.9396,0,1,1,18.789,0z" transform="matrix(0.940273,0.000000,0.000000,0.940273,55.40361,4.271194)" stroke-dashoffset="0.0000000" stroke="#7b7f7a" stroke-linecap="butt" stroke-miterlimit="4.0000000" stroke-width="1.0000000" fill="none"/>
  <path id="path2983" stroke-linejoin="miter" style="marker-end:none;color:#000000;marker-start:none;marker-mid:none;" d="M-26.264,29.716a9.3944,3.9396,0,1,1,-18.789,0,9.3944,3.9396,0,1,1,18.789,0z" transform="matrix(0.940273,0.000000,0.000000,0.940273,55.40361,3.521194)" stroke-dashoffset="0.0000000" stroke="url(#linearGradient2991)" stroke-linecap="butt" stroke-miterlimit="4.0000000" stroke-width="0.68065339" fill="none"/>
  <path id="path2411" stroke-linejoin="round" d="M25.688,28.766l-0.063,1s4.324,3.599,9,4.203c2.338,0.301,4.754,0.702,6.75,1.187s3.588,1.12,4.125,1.656c0.31,0.311,0.451,0.574,0.5,0.782,0.049,0.207,0.038,0.355-0.094,0.562-0.264,0.416-1.08,0.968-2.468,1.406-2.778,0.878-7.721,1.438-14.563,1.438v1c6.896,0,11.864-0.528,14.844-1.469,1.49-0.47,2.525-1.015,3.031-1.812,0.253-0.399,0.357-0.889,0.25-1.344s-0.385-0.885-0.781-1.281c-0.878-0.878-2.537-1.407-4.594-1.906-2.057-0.5-4.516-0.915-6.875-1.219-4.719-0.609-9.062-4.203-9.062-4.203z" fill-rule="evenodd" stroke="#979797" stroke-linecap="butt" stroke-miterlimit="4.0000000" stroke-width="0.40000001" fill="#d0d0d0"/>
  <path id="path2462" style="marker-end:none;color:#000000;marker-start:none;marker-mid:none;" d="M41.101,35.051a16.882,4.552,0,1,1,-33.765,0,16.882,4.552,0,1,1,33.765,0z" fill-rule="evenodd" transform="matrix(1.000000,0.000000,0.000000,1.368932,-1.978553,-19.02126)" fill="url(#radialGradient2460)"/>
  <rect id="rect2699" style="marker-end:none;color:#000000;marker-start:none;marker-mid:none;" fill-rule="evenodd" height="2.74" width="9.0397" y="30.704" x="17.472" fill="url(#linearGradient2707)"/>
  <path id="rect2404" stroke-linejoin="miter" style="marker-end:none;color:#000000;marker-start:none;marker-mid:none;" d="M7.0809,1.6956h29.588c0.911,0,1.624,0.5835,1.667,1.4016l1.332,25.578c0.058,1.118-0.901,2.021-2.02,2.021h-31.546c-1.1192,0-2.0785-0.903-2.0203-2.021l1.3321-25.578c0.0402-0.7735,0.5475-1.4016,1.6667-1.4016z" fill-rule="evenodd" stroke-dashoffset="0.0000000" stroke="url(#linearGradient2979)" stroke-linecap="butt" stroke-miterlimit="4.0000000" stroke-width="1.0000000" fill="url(#linearGradient2251)"/>
  <path id="path2377" stroke-linejoin="round" style="stroke-dasharray:none;" d="M8.4105,4.3058l-1.2422,22.045h27.651l-1.335-21.952-25.074-0.0935z" fill-rule="evenodd" stroke="#000079" stroke-linecap="butt" stroke-miterlimit="4.0000000" stroke-width="0.50000000" fill="url(#linearGradient2681)"/>
  <path id="path2393" stroke-linejoin="miter" d="M6.1774,28.736h31.429" stroke-opacity="0.24840762" stroke="url(#linearGradient2689)" stroke-linecap="round" stroke-miterlimit="4.0000000" stroke-width="0.99618119" fill="none"/>
  <path id="path2397" stroke-linejoin="miter" style="marker-end:none;color:#000000;marker-start:none;marker-mid:none;" d="M6.9146,2.7063l29.845-0.0378c0.284-0.0003,0.559,0.2373,0.582,0.6526l1.362,24.803c0.058,1.057-0.54,1.786-1.598,1.786h-30.524c-1.0587,0-1.5931-0.729-1.5359-1.786l1.3241-24.494c0.0387-0.7159,0.1664-0.9234,0.5446-0.9239z" stroke-opacity="0.70063692" stroke-dashoffset="0.0000000" stroke="url(#linearGradient2421)" stroke-linecap="butt" stroke-miterlimit="4.0000000" stroke-width="0.99999964" fill="none"/>
  <path id="path2443" opacity="0.53142858" d="M8.7115,4.7464l-0.8025,17.871c11.045-2.401,11.421-10.493,25.154-13.147l-0.161-4.6575-24.19-0.066z" fill-rule="evenodd" fill="url(#linearGradient2673)"/>
  <path id="path2657" style="marker-end:none;color:#000000;marker-start:none;marker-mid:none;" d="M41.101,35.051a16.882,4.552,0,1,1,-33.765,0,16.882,4.552,0,1,1,33.765,0z" fill-rule="evenodd" transform="matrix(1.264398,0.000000,0.000000,1.291262,-6.216332,-4.000423)" fill="url(#radialGradient2460)"/>
  <path id="path2409" stroke-linejoin="miter" style="marker-end:none;color:#000000;marker-start:none;stroke-dasharray:none;marker-mid:none;" d="M6.4622,36.817h31.003c1.119,0,0.977,0.272,1.092,0.613l2.834,8.425c0.115,0.342,0.027,0.613-1.092,0.613h-36.672c-1.1192,0-1.2071-0.271-1.0922-0.613l2.8347-8.425c0.1148-0.341-0.0271-0.613,1.0922-0.613z" fill-rule="evenodd" stroke-dashoffset="0.0000000" stroke="url(#linearGradient2979)" stroke-linecap="butt" stroke-miterlimit="4.0000000" stroke-width="1.0000000" fill="url(#linearGradient2981)"/>
  <path id="path2611" d="M6.3917,38.829l-1.7678,5.127h5.4801l0.53-2.033h14.85l0.549,2.075h6.168l-1.679-5.169h-24.13z" fill-rule="evenodd" fill="#7a7d77"/>
  <path id="path2613" fill-rule="evenodd" fill="#777874" d="M11.076,42.276l-0.442,1.68h14.761l-0.442-1.768-13.877,0.088z"/>
  <path id="path2619" style="marker-end:none;color:#000000;marker-start:none;marker-mid:none;" fill-rule="evenodd" fill="#777a75" d="M37.593,38.829l1.679,5.038-5.48-0.088-1.503-4.861,5.304-0.089z"/>
  <path id="path2615" style="marker-end:none;color:#000000;marker-start:none;marker-mid:none;" fill-rule="evenodd" fill="url(#linearGradient2758)" d="M37.593,38.299l1.679,5.038-5.48-0.088-1.503-4.862,5.304-0.088z"/>
  <path id="path2617" d="M6.3917,38.21l-1.7678,5.127h5.4801l0.53-2.033h14.85l0.549,2.075h6.168l-1.679-5.169h-24.13z" fill-rule="evenodd" fill="url(#linearGradient2758)"/>
  <path id="path2621" style="marker-end:none;color:#000000;marker-start:none;marker-mid:none;" fill-rule="evenodd" fill="url(#linearGradient2758)" d="M11.076,41.746l-0.442,1.679h14.761l-0.442-1.767-13.877,0.088z"/>
  <path id="path2631" stroke-linejoin="round" style="marker-end:none;color:#000000;marker-start:none;marker-mid:none;" d="M6.1278,37.578h31.826l2.637,8.093h-37.261l2.7981-8.093z" stroke-dashoffset="0.0000000" stroke="url(#linearGradient2741)" stroke-linecap="butt" stroke-miterlimit="4.0000000" stroke-width="0.50000000" fill="none"/>
  <path id="path2709" style="marker-end:none;color:#000000;marker-start:none;marker-mid:none;" d="M35.621,3.9384a0.83969,0.83969,0,1,1,-1.68,0,0.83969,0.83969,0,1,1,1.68,0z" fill-rule="evenodd" transform="matrix(1.331237,0.000000,0.000000,0.658449,-10.41933,2.853866)" fill="url(#linearGradient2717)"/>
  <path id="path2719" style="marker-end:none;color:#000000;marker-start:none;marker-mid:none;" d="M35.621,3.9384a0.83969,0.83969,0,1,1,-1.68,0,0.83969,0.83969,0,1,1,1.68,0z" fill-rule="evenodd" transform="matrix(1.331237,0.000000,0.000000,0.658449,-10.30573,4.959651)" fill="url(#linearGradient2717)"/>
  <path id="path2723" style="marker-end:none;color:#000000;marker-start:none;marker-mid:none;" d="M35.621,3.9384a0.83969,0.83969,0,1,1,-1.68,0,0.83969,0.83969,0,1,1,1.68,0z" fill-rule="evenodd" transform="matrix(1.331237,0.000000,0.000000,0.658449,-10.19213,6.959651)" fill="url(#linearGradient2717)"/>
  <path id="path2727" style="marker-end:none;color:#000000;marker-start:none;marker-mid:none;" d="M35.621,3.9384a0.83969,0.83969,0,1,1,-1.68,0,0.83969,0.83969,0,1,1,1.68,0z" fill-rule="evenodd" transform="matrix(1.331237,0.000000,0.000000,0.658449,-10.07853,8.959651)" fill="url(#linearGradient2717)"/>
  <path id="path2731" style="marker-end:none;color:#000000;marker-start:none;marker-mid:none;" d="M35.621,3.9384a0.83969,0.83969,0,1,1,-1.68,0,0.83969,0.83969,0,1,1,1.68,0z" fill-rule="evenodd" transform="matrix(1.331237,0.000000,0.000000,0.658449,-9.964930,10.95965)" fill="url(#linearGradient2717)"/>
  <path id="text2735" fill="#4a4a4a" d="M20,27.318h0.282c0.083,0,0.148,0.018,0.192,0.056,0.045,0.037,0.068,0.09,0.068,0.158,0,0.069-0.023,0.123-0.068,0.16-0.044,0.037-0.109,0.056-0.192,0.056h-0.112v0.228h-0.17v-0.658m0.17,0.123v0.184h0.094c0.033,0,0.058-0.008,0.076-0.024s0.027-0.039,0.027-0.069c0-0.029-0.009-0.052-0.027-0.068-0.018-0.015-0.043-0.023-0.076-0.023h-0.094m0.792-0.012c-0.052,0-0.092,0.019-0.12,0.057-0.029,0.038-0.043,0.092-0.043,0.161,0,0.07,0.014,0.123,0.043,0.161,0.028,0.039,0.068,0.058,0.12,0.058s0.092-0.019,0.121-0.058c0.028-0.038,0.043-0.091,0.043-0.161,0-0.069-0.015-0.123-0.043-0.161-0.029-0.038-0.069-0.057-0.121-0.057m0-0.123c0.106,0,0.189,0.03,0.249,0.091,0.06,0.06,0.09,0.144,0.09,0.25,0,0.107-0.03,0.19-0.09,0.251-0.06,0.06-0.143,0.091-0.249,0.091s-0.188-0.031-0.249-0.091c-0.06-0.061-0.09-0.144-0.09-0.251,0-0.106,0.03-0.19,0.09-0.25,0.061-0.061,0.143-0.091,0.249-0.091m0.466,0.012h0.19l0.239,0.451v-0.451h0.161v0.658h-0.189l-0.24-0.452v0.452h-0.161v-0.658m0.663,0h0.186l0.15,0.234,0.15-0.234h0.186l-0.251,0.381v0.277h-0.17v-0.277l-0.251-0.381"/>
  <path id="path6548" opacity="0.6" style="color:#000000;" d="M41,40a17.143,8.5714,0,1,1,-34.286,0,17.143,8.5714,0,1,1,34.286,0z" fill-rule="nonzero" transform="matrix(0.55948985,0,0,0.26808874,23.490632,31.478511)" display="block" fill="url(#radialGradient2880)"/>
  <g id="g4006" stroke-linejoin="miter" stroke-linecap="butt" stroke-miterlimit="4" transform="matrix(0.52261663,0,0,0.51064521,23.957201,19.988993)">
   <path id="path1314" style="stroke-dasharray:none;" d="m46.857,23.929c0,12.9-10.457,23.357-23.357,23.357s-23.357-10.457-23.357-23.357,10.457-23.357,23.357-23.357,23.357,10.457,23.357,23.357z" fill-rule="nonzero" transform="matrix(0.920488,0,0,0.920488,2.368532,0.97408)" stroke="#b20000" stroke-width="1.08638" fill="url(#linearGradient3978)"/>
   <path id="path3560" opacity="0.34659089" style="stroke-dasharray:none;" d="m49.902,26.635c0,13.25-10.741,23.991-23.991,23.991s-23.991-10.741-23.991-23.991,10.741-23.991,23.991-23.991,23.991,10.741,23.991,23.991z" fill-opacity="0" transform="matrix(0.856093,0,0,0.856093,1.818275,0.197769)" stroke="url(#linearGradient3980)" stroke-width="1.16809607"/>
  </g>
  <rect id="rect2070" fill-rule="nonzero" height="4.0852" width="14.633" y="29.691" x="29.183" fill="#efefef"/>
  <path id="path3955" fill-rule="nonzero" fill="url(#linearGradient3982)" d="m46.654,31.121c0,5.5472-5.4276-3.2094-9.7889,0.1979-4.2597,3.3279-10.797,6.2437-10.797,0.69652,0-5.677,4.558-10.944,10.235-10.944,5.6772,0,10.35,4.502,10.35,10.049z"/>
 </g>
</svg>